<svg xmlns="http://www.w3.org/2000/svg" version="1.1" xmlns:xlink="http://www.w3.org/1999/xlink" xmlns:svgjs="http://svgjs.dev/svgjs" width="1000" height="1000" viewBox="0 0 1000 1000"><rect width="1000" height="1000" fill="#ffffff"></rect><g transform="matrix(0.7,0,0,0.7,149.57575757575756,282.1265587044535)"><svg viewBox="0 0 396 247" data-background-color="#ffffff" preserveAspectRatio="xMidYMid meet" height="623" width="1000" xmlns="http://www.w3.org/2000/svg" xmlns:xlink="http://www.w3.org/1999/xlink"><g id="tight-bounds" transform="matrix(1,0,0,1,0.2400000000000091,-0.09999999999999432)"><svg viewBox="0 0 395.52 247.2" height="247.2" width="395.52"><g><svg></svg></g><g><svg viewBox="0 0 395.52 247.2" height="247.2" width="395.52"><g transform="matrix(1,0,0,1,75.54432,56.584453413897265)"><svg viewBox="0 0 244.43135999999998 134.03109317220546" height="134.03109317220546" width="244.43135999999998"><g><svg viewBox="0 0 244.43135999999998 134.03109317220546" height="134.03109317220546" width="244.43135999999998"><g><svg viewBox="0 0 244.43135999999998 134.03109317220546" height="134.03109317220546" width="244.43135999999998"><g><svg viewBox="0 0 244.43135999999998 134.03109317220546" height="134.03109317220546" width="244.43135999999998"><g><svg viewBox="0 0 244.43135999999998 134.03109317220546" height="134.03109317220546" width="244.43135999999998"><g><svg viewBox="0 0 244.43135999999998 134.03109317220546" height="134.03109317220546" width="244.43135999999998"><g transform="matrix(1,0,0,1,0,0)"><svg width="244.43135999999998" viewBox="2.5 -35.849998474121094 66.19999694824219 36.29999923706055" height="134.03109317220546" data-palette-color="#ecab55"><path d="M17.15 0.45L17.15 0.45Q16.6 0.2 16.28-0.45 15.95-1.1 15.95-2.5L15.95-2.5Q15.95-2.95 16-3.58 16.05-4.2 16.2-4.7L16.2-4.7 16.3-4.7Q16.15-3.9 15.63-2.98 15.1-2.05 14.25-1.35L14.25-1.35Q13.4-0.6 12.1-0.13 10.8 0.35 8.95 0.35L8.95 0.35Q5.8 0.35 4.15-1.07 2.5-2.5 2.5-4.95L2.5-4.95Q2.5-6.9 3.43-8.28 4.35-9.65 5.83-10.58 7.3-11.5 9.03-12.05 10.75-12.6 12.4-12.9 14.05-13.2 15.3-13.4L15.3-13.4Q15.3-15.45 15.23-16.6 15.15-17.75 14.93-18.43 14.7-19.1 14.25-19.6L14.25-19.6Q13.65-20.35 12.88-20.73 12.1-21.1 11.15-21.1L11.15-21.1Q9.5-21.1 8.55-20.08 7.6-19.05 7.2-17.7 6.8-16.35 6.75-15.3L6.75-15.3Q6.2-15.3 5.38-15.38 4.55-15.45 4.15-15.65L4.15-15.65Q4.25-16.9 4.2-18.45 4.15-20 3.9-21.1L3.9-21.1Q5.95-22.15 8.22-22.75 10.5-23.35 12.4-23.35L12.4-23.35Q14.25-23.35 15.58-22.83 16.9-22.3 17.7-21.45L17.7-21.45Q19-20.2 19.4-18.18 19.8-16.15 19.8-12.8L19.8-12.8 19.8-7.3Q19.8-5.9 20.03-5.08 20.25-4.25 20.9-3.88 21.55-3.5 22.9-3.4L22.9-3.4Q22.9-2.9 22.85-2.27 22.8-1.65 22.6-1.1L22.6-1.1Q21.35-1.05 19.83-0.63 18.3-0.2 17.15 0.45ZM10.35-2.4L10.35-2.4Q11.45-2.4 12.6-3.13 13.75-3.85 14.53-5.4 15.3-6.95 15.3-9.45L15.3-9.45 15.3-11.35Q14.05-11.2 12.65-10.93 11.25-10.65 10.05-10.1 8.85-9.55 8.1-8.58 7.35-7.6 7.35-5.95L7.35-5.95Q7.35-4.1 8.25-3.25 9.15-2.4 10.35-2.4ZM35.3 0.45L35.3 0.45Q32.35 0.45 30.92-1.07 29.5-2.6 29.5-6L29.5-6 29.5-19.55Q28.75-19.8 27.95-19.98 27.15-20.15 25.9-20.2L25.9-20.2Q25.9-20.85 26-21.33 26.1-21.8 26.35-22.4L26.35-22.4 29.5-22.4 29.5-29Q30.5-29.25 31.47-29.8 32.45-30.35 33.2-31L33.2-31Q33.7-30.8 33.85-30.4 34-30 34-28.4L34-28.4 34-22.4 40.5-22.4Q40.5-21.9 40.4-21.33 40.3-20.75 40.05-20.2L40.05-20.2Q38.25-20.15 36.75-19.98 35.25-19.8 34-19.55L34-19.55 34-7.05Q34-5.4 34.35-4.33 34.7-3.25 35.35-2.75 36-2.25 36.9-2.25L36.9-2.25Q37.95-2.25 38.72-2.55 39.5-2.85 40.2-3.45L40.2-3.45Q40.85-2.7 40.95-1.8L40.95-1.8Q40.15-0.85 38.52-0.2 36.9 0.45 35.3 0.45ZM44.25 0.15L44.25 0.15Q44.25-0.35 44.3-0.93 44.35-1.5 44.5-2L44.5-2Q46.5-2 47.22-2.93 47.95-3.85 47.95-6.35L47.95-6.35 47.95-28.75Q47.95-29.95 47.72-30.73 47.5-31.5 46.7-31.9 45.9-32.3 44.2-32.3L44.2-32.3Q44.2-32.85 44.3-33.3 44.4-33.75 44.65-34.15L44.65-34.15Q45.4-34.15 46.77-34.4 48.15-34.65 49.45-35.05 50.75-35.45 51.35-35.85L51.35-35.85Q51.8-35.7 52.12-35.25 52.45-34.8 52.45-33.85L52.45-33.85 52.45-6.35Q52.45-3.85 53.12-2.93 53.8-2 55.4-2L55.4-2Q55.55-1.5 55.6-0.85 55.65-0.2 55.65 0.15L55.65 0.15Q54.35 0.05 52.9 0.03 51.45 0 50 0L50 0Q49.05 0 48.02 0.03 47 0.05 46.05 0.08 45.1 0.1 44.25 0.15ZM62.05 0.45L62.05 0.45Q60.9-1.3 59.05-3.65 57.2-6 55.15-8.35 53.1-10.7 51.25-12.45L51.25-12.45 51.2-11.65 56.15-16.15Q57.9-17.7 58.62-18.68 59.35-19.65 59.35-20.15L59.35-20.15Q59.35-20.55 58.97-20.75 58.6-20.95 57.9-20.95L57.9-20.95Q57.75-21.45 57.67-21.95 57.6-22.45 57.6-23L57.6-23Q58.7-22.95 59.62-22.93 60.55-22.9 61.35-22.9 62.15-22.9 62.8-22.9L62.8-22.9Q63.65-22.9 64.9-22.93 66.15-22.95 67.5-23L67.5-23Q67.5-22.5 67.42-21.93 67.35-21.35 67.15-20.9L67.15-20.9Q66.2-20.9 65.27-20.6 64.35-20.3 63.32-19.65 62.3-19 61.05-17.85L61.05-17.85 55.55-12.85 55.45-14.45Q57.2-12.65 59.05-10.58 60.9-8.5 63.5-5.3L63.5-5.3Q64.5-4.1 65.22-3.45 65.95-2.8 66.75-2.53 67.55-2.25 68.7-2.15L68.7-2.15Q68.7-1.45 68.65-0.93 68.6-0.4 68.45 0L68.45 0Q67.25 0 66.2 0.05 65.15 0.1 64.15 0.18 63.15 0.25 62.05 0.45Z" opacity="1" transform="matrix(1,0,0,1,0,0)" fill="#ecab55" class="undefined-text-0" data-fill-palette-color="primary" id="text-0"></path></svg></g></svg></g></svg></g></svg></g></svg></g></svg></g></svg></g><path d="M247.834 50.584L247.834 5.214 11.063 5.214 11.063 241.986 247.834 241.986 247.834 196.616 235.747 196.616 235.747 229.899 23.15 229.899 23.15 17.301 235.747 17.301 235.747 50.584Z" fill="#ecab55" stroke="transparent" data-fill-palette-color="primary"></path></svg></g><defs></defs></svg><rect width="395.52" height="247.2" fill="none" stroke="none" visibility="hidden"></rect></g></svg></g></svg>